<?xml version="1.0" encoding="utf-8"?>
<!-- Generator: Adobe Illustrator 23.0.1, SVG Export Plug-In . SVG Version: 6.00 Build 0)  -->
<svg version="1.1" id="Layer_1" xmlns="http://www.w3.org/2000/svg" xmlns:xlink="http://www.w3.org/1999/xlink" x="0px" y="0px"
	 viewBox="0 0 688 688" style="enable-background:new 0 0 688 688;" xml:space="preserve">
<style type="text/css">
	.st0{fill:#FFFFFF;}
</style>
<g>
	<g>
		<path class="st0" d="M580.97,383.48c-9.71,5.61-23.59,9.11-39,9.11c-15.44,0-29.3-3.5-39.02-9.09c-9.71-5.6-23.6-9.09-39-9.09
			c-15.41,0-29.33,3.49-39.01,9.09c-9.72,5.6-23.6,9.09-39.03,9.09c-15.41,0-29.29-3.5-38.99-9.09c-9.72-5.6-23.59-9.09-39.03-9.09
			c-1.44,0-2.87,0.05-4.31,0.11v36.1c0,5.47,0.2,10.72,0.51,15.9c1.26-0.04,2.53-0.11,3.8-0.11c15.44,0,29.3,3.5,39.03,9.12
			c9.7,5.59,23.58,9.08,38.99,9.08c15.43,0,29.3-3.49,39.03-9.08c9.69-5.61,23.6-9.12,39.01-9.12c15.4,0,29.29,3.5,39,9.12
			c9.72,5.59,23.58,9.08,39.02,9.08c15.41,0,29.29-3.49,39-9.09c9.71-5.6,23.59-9.11,38.99-9.11c1.31,0,2.56,0.07,3.82,0.11
			c0.31-5.18,0.5-10.44,0.5-15.9v-36.1c-1.42-0.06-2.83-0.11-4.32-0.11C604.56,374.4,590.68,377.89,580.97,383.48"/>
		<path class="st0" d="M541.96,496.63c-15.43,0-29.31-3.49-39.02-9.08c-9.71-5.6-23.6-9.12-39-9.12c-15.41,0-29.31,3.52-39.01,9.12
			c-9.72,5.59-23.6,9.08-39.03,9.08c-15.41,0.01-29.29-3.49-38.99-9.08c-8.64-4.99-20.57-8.3-33.92-8.95
			c6.83,22.87,16.95,42.1,28.89,58.48c1.77,0.79,3.46,1.59,5.03,2.5c9.7,5.59,23.58,9.11,38.99,9.09c15.43,0,29.3-3.5,39.03-9.09
			c9.7-5.6,23.6-9.13,39.01-9.13c15.4,0,29.29,3.5,39,9.13c9.7,5.59,23.59,9.09,39.02,9.09c15.41,0,29.29-3.5,39-9.09
			c1.57-0.92,3.27-1.72,5.03-2.51c11.95-16.37,22.03-35.6,28.87-58.47c-13.37,0.65-25.29,3.96-33.91,8.95
			C571.25,493.14,557.38,496.63,541.96,496.63"/>
		<path class="st0" d="M502.95,591.59c-9.71-5.58-23.6-9.09-39-9.09c-15.41,0-29.31,3.52-39.01,9.09
			c-4.68,2.71-10.32,4.88-16.63,6.45c22.36,14.95,43.04,25.94,55.64,36.47c12.59-10.53,33.27-21.52,55.63-36.47
			C513.27,596.47,507.63,594.3,502.95,591.59"/>
		<path class="st0" d="M580.97,279.43c-9.71,5.6-23.59,9.12-39,9.12c-15.44,0-29.3-3.52-39.02-9.12c-9.71-5.58-23.6-9.09-39-9.09
			c-15.41,0-29.33,3.51-39.01,9.09c-9.72,5.6-23.6,9.12-39.03,9.12c-15.41,0-29.29-3.52-38.99-9.12
			c-9.72-5.58-23.59-9.09-39.03-9.09c-1.44,0-2.87,0.05-4.31,0.11v52.03c1.44-0.05,2.87-0.1,4.31-0.1c15.44,0,29.3,3.49,39.03,9.08
			c9.7,5.61,23.58,9.11,38.99,9.11c15.43,0,29.3-3.49,39.03-9.11c9.69-5.59,23.6-9.08,39.01-9.08c15.4,0,29.29,3.49,39,9.08
			c9.72,5.61,23.58,9.11,39.02,9.11c15.41,0,29.29-3.49,39-9.11c9.71-5.59,23.59-9.08,38.99-9.08c1.49,0,2.9,0.05,4.32,0.11v-52.04
			c-1.42-0.06-2.83-0.11-4.32-0.11C604.56,270.34,590.68,273.85,580.97,279.43"/>
	</g>
	<g>
		<path class="st0" d="M501.09,163.13c0.44-2.9,0.49-6.35,0-9.63c-0.16-1.05-0.49-2.08-0.66-3.14c-0.47-2.78-0.55-5.38-0.47-8.06
			c0.12-2.72,0.73-5.97,1.96-7.8c-2.72-0.42-6.34,2.94-8.29,5.82c-1.36,2-2.48,4.01-3.23,6.25c-0.3,0.82-0.47,1.73-0.76,2.55
			c-0.95,2.63-2.63,5.24-4.43,7.3c-2.36,2.61-5.32,4.84-7.99,6.83l-0.01,0.02c7.71,1.67,14.89,4.71,21.29,8.89
			C499.5,169.37,500.53,166.37,501.09,163.13z M427.05,150.87c0.4,0.8,0.91,1.54,1.3,2.37c1.18,2.52,1.86,5.52,2,8.24
			c0.21,3.55-0.33,7.22-0.76,10.49v0.07c6.38-4.16,13.58-7.21,21.29-8.84c-1.26-2.67-2.61-5.54-4.57-8.18
			c-1.73-2.38-4.13-4.84-6.77-6.77c-0.88-0.65-1.81-1.18-2.7-1.8c-2.31-1.63-4.19-3.44-6.02-5.36c-1.85-2.02-3.68-4.76-4.12-6.91
			c-2.24,1.64-2.42,6.58-1.76,10C425.41,146.55,426.03,148.76,427.05,150.87z M474.59,162.81L463.94,57.04l-10.66,105.77
			c3.48-0.57,7-0.95,10.66-0.95C467.56,161.86,471.1,162.24,474.59,162.81z M515.98,189.14l20.25-36.3l-36.27,20.3
			C506.2,177.45,511.62,182.87,515.98,189.14z M427.93,173.14l-36.29-20.3l20.24,36.3C416.27,182.87,421.67,177.45,427.93,173.14z
			 M540.86,200.75c0.64-0.88,1.15-1.82,1.8-2.68c1.59-2.32,3.42-4.21,5.34-6.02c2-1.85,4.75-3.69,6.89-4.14
			c-1.63-2.22-6.59-2.43-9.98-1.76c-2.33,0.46-4.55,1.08-6.68,2.12c-0.83,0.41-1.54,0.91-2.38,1.31c-2.51,1.18-5.51,1.83-8.27,1.99
			c-3.5,0.24-7.18-0.33-10.47-0.76h-0.05c4.16,6.41,7.2,13.58,8.83,21.31c2.68-1.26,5.5-2.63,8.18-4.57
			C536.42,205.81,538.89,203.42,540.86,200.75z M401.52,214.82l-57.68,10.34l57.7,10.33c-0.53-3.38-0.91-6.81-0.91-10.33
			C400.63,221.64,401.01,218.18,401.52,214.82z M584.03,225.16l-57.71-10.34c0.57,3.36,0.94,6.82,0.94,10.34
			c0,3.52-0.37,6.95-0.94,10.33L584.03,225.16z M392.3,188.03c-1.05,0.16-2.09,0.44-3.15,0.64c-2.78,0.47-5.41,0.54-8.08,0.44
			c-2.73-0.09-5.94-0.74-7.76-1.92c-0.46,2.74,2.92,6.35,5.79,8.28c1.96,1.34,4.03,2.5,6.23,3.22c0.86,0.3,1.72,0.45,2.58,0.77
			c2.63,0.92,5.21,2.61,7.26,4.42c2.66,2.34,4.86,5.32,6.9,7.95c1.63-7.67,4.7-14.87,8.88-21.24c-2.77-0.99-5.77-2.06-9.05-2.56
			C399.01,187.57,395.58,187.52,392.3,188.03z M463.94,172.59c-29.04,0-52.57,23.53-52.57,52.57c0,2.62,0.26,5.18,0.63,7.69
			c4.82-1.46,9.19-3.29,12.93-5.45c9.69-5.58,23.6-9.09,39.01-9.09c15.4,0,29.29,3.51,39,9.09c3.74,2.16,8.11,3.99,12.94,5.46
			c0.37-2.52,0.62-5.08,0.62-7.7C516.51,196.12,492.98,172.59,463.94,172.59z"/>
	</g>
</g>
<g>
	<path class="st0" d="M111.34,326.18v4.34c-32.67,5.49-56.09,24.58-56.09,59.27c0,52.91,43.37,82.69,93.1,82.69
		c56.96,0,96.57-43.66,96.57-85.59c0-37.88-27.76-52.91-58.99-65.92l1.74-4.05c17.64,3.47,34.99,8.96,51.76,15.9
		c8.96,18.51,12.43,38.46,12.43,58.99c0,60.43-34.7,114.21-100.04,114.21c-51.47,0-103.51-40.19-103.51-116.52
		c0-21.98,4.34-44.24,15.61-63.32H111.34z"/>
	<path class="st0" d="M51.78,76.65h4.34c2.89,26.31,19.08,28.05,57.25,29.2l63.32,1.74c37.3,0.87,75.18,16.77,75.18,80.96
		c0,89.63-64.77,80.38-87.9,80.38H99.2c-29.78,0.87-38.46,1.16-43.08,35.85h-4.34v-99.75h4.34c5.49,37.88,11.28,38.46,43.08,38.46
		h59.27c5.49,0,80.09,9.25,80.09-69.97c0-62.45-59.56-56.38-94.84-56.38h-30.36c-36.72,0-53.49,2.89-57.25,43.37h-4.34V76.65z"/>
	<path class="st0" d="M99.2,573.41c-31.81,0-37.59,0.58-43.08,38.45h-4.34V512.4h4.34c4.63,34.7,13.3,35.56,43.08,35.56h103.51
		c47.55-0.24,66.92,5.93,85.37,44.82c3.26,6.86,6.16,12.22,9.58,22.97c2.82,8.84,3.35,16.97,3.46,18.02l-4.32,0.43
		c-0.02-0.31-0.34-3.66-1.66-8.78c-0.63-2.44-2.26-6.47-2.88-7.78c-2.09-4.44-3.6-7.19-5.96-10.81
		c-19.93-30.55-49.97-33.41-96.32-33.41H99.2z"/>
</g>
</svg>
